<svg width="20" height="20" fill="none" xmlns="http://www.w3.org/2000/svg"><path d="M10.747 3.016a.625.625 0 0 1-1.065.656l-.012-.015a.5.5 0 0 0-.128-.097c-.123-.068-.39-.167-.888-.076-.34.063-.517.278-.625.556a1.75 1.75 0 0 0-.112.543v1.042a.833.833 0 0 0 .833.833h.208a.833.833 0 0 0 .807-.625h-.39a.625.625 0 0 1 0-1.25h1.042a.625.625 0 0 1 .625.625v.417a2.083 2.083 0 0 1-2.084 2.083H8.75a2.083 2.083 0 0 1-2.083-2.083V4.549l.003-.067a2.963 2.963 0 0 1 .196-.898c.204-.522.652-1.162 1.562-1.33.761-.139 1.327-.007 1.724.215.191.108.332.23.427.331.058.063.111.13.159.202l.005.008.002.003.002.003ZM3.94 2.55c.497-.604 1.477-.252 1.477.53v2.336h.208a.625.625 0 0 1 0 1.25h-.208v.416a.625.625 0 1 1-1.25 0v-.416H2.669a1 1 0 0 1-.772-1.636L3.94 2.55Zm.227 2.866V4.242l-.968 1.175h.968ZM16.667 5a.833.833 0 0 1 .833.833v10.834a.833.833 0 0 1-1.667 0V5.833A.833.833 0 0 1 16.667 5Zm-3.334 2.5c.46 0 .834.372.834.83v8.34c0 .46-.374.83-.834.83a.831.831 0 0 1-.833-.83V8.33a.83.83 0 0 1 .833-.83ZM10 10a.833.833 0 0 1 .833.833v5.834a.834.834 0 0 1-1.666 0v-5.834A.833.833 0 0 1 10 10Zm-3.333 2.5c.46 0 .833.37.833.828v3.344a.83.83 0 0 1-.833.828.83.83 0 0 1-.834-.828v-3.344a.83.83 0 0 1 .834-.828ZM3.333 15c.46 0 .834.367.834.82v.86a.825.825 0 0 1-.834.82.826.826 0 0 1-.833-.82v-.86a.825.825 0 0 1 .833-.82Z" fill="#fff"/></svg>