<svg width="452" height="201" fill="none" xmlns="http://www.w3.org/2000/svg"><path d="M4.891.095C2.946.909.808 3.209.132 6.097c-.855 3.658 2.704 5.205 2.996 4.698.344-.596-.637-.798-.84-2.696-.26-2.452.88-5.191 2.314-6.393.266-.223.254.087.254.662 0 1.028-.057 10.258-.057 12.184 0 2.606-.108 3.43-.301 4.243-.196.824-.511 1.38-.272 1.595.266.24 1.405-.33 2.064-1.25.79-1.104 1.067-2.428 1.116-3.867.06-1.734.058-4.487.06-6.056.003-1.44.025-5.656-.025-8.19C7.43.405 5.705-.247 4.891.094Zm69.076 12.197c-.063 1.355-.363 2.414-.735 3.161-.721 1.447-2.216 1.896-2.851-.183-.346-1.134-.362-3.026-.114-4.608.254-1.61.96-2.828 2.131-2.718 1.155.109 1.696 1.597 1.569 4.348ZM54.498 20.7c-.015 2.251-.37 4.225-1.13 4.799-1.077.813-2.526.203-2.226-1.44.266-1.454 1.52-2.939 3.36-4.753 0 0 .003.414-.004 1.394Zm-.294-8.42c-.066 1.234-.386 2.474-.735 3.175-.72 1.446-2.227 1.898-2.85-.184-.428-1.423-.325-3.264-.114-4.424.274-1.505.938-2.902 2.13-2.902 1.16 0 1.733 1.273 1.569 4.335Zm-11.278-.019c-.07 1.307-.326 2.4-.735 3.194-.74 1.436-2.205 1.891-2.85-.184-.467-1.497-.308-3.537-.114-4.64.287-1.636 1.007-2.795 2.13-2.686 1.155.113 1.716 1.597 1.569 4.316Zm51.684 1.527c-.282 0-.41.29-.517.78-.37 1.703-.758 2.087-1.259 2.087-.56 0-1.062-.843-1.191-2.53-.102-1.327-.086-3.77.044-6.2.027-.5-.111-.993-1.45-1.48-.576-.209-1.414-.517-1.83.49-1.18 2.844-1.64 5.102-1.749 6.02-.005.047-.064.056-.074-.055-.069-.734-.224-2.07-.243-4.874-.003-.547-.12-1.013-.723-1.395-.392-.247-1.582-.685-2.011-.164-.371.426-.801 1.572-1.248 2.93-.363 1.104-.616 1.851-.616 1.851s.005-2.979.009-4.109c.002-.426-.29-.568-.379-.594-.397-.115-1.178-.308-1.51-.308-.41 0-.51.23-.51.563 0 .043-.065 3.922-.065 6.634l.001.383c-.226 1.247-.96 2.939-1.76 2.939s-1.177-.708-1.177-3.941c0-1.886.057-2.706.085-4.07.016-.786.047-1.39.045-1.527-.006-.42-.732-.631-1.07-.71a3.162 3.162 0 0 0-.865-.096c-.325.019-.556.233-.556.527l.002.457c-.42-.66-1.096-1.119-1.545-1.252-1.21-.36-2.473-.04-3.426 1.292-.757 1.06-1.213 2.259-1.393 3.983-.131 1.26-.089 2.537.145 3.618-.282 1.22-.806 1.719-1.38 1.719-.831 0-1.435-1.359-1.365-3.708.047-1.546.356-2.63.694-4.2.144-.668.027-1.018-.267-1.354-.27-.308-.843-.465-1.668-.272a29.57 29.57 0 0 1-2.197.4s.046-.185.084-.51c.2-1.712-1.66-1.573-2.253-1.027-.354.327-.595.712-.687 1.404-.145 1.098.751 1.616.751 1.616-.294 1.345-1.014 3.102-1.758 4.373-.398.68-.703 1.185-1.096 1.72l-.004-.597c-.009-2.828.03-5.054.046-5.856.016-.786.047-1.373.046-1.51-.005-.308-.184-.424-.557-.57-.33-.13-.72-.22-1.125-.252-.51-.04-.818.231-.81.552.002.06.002.431.002.431-.42-.66-1.096-1.119-1.545-1.252-1.21-.359-2.473-.04-3.426 1.292-.757 1.06-1.253 2.546-1.393 3.97-.13 1.326-.107 2.454.072 3.404-.193.951-.746 1.946-1.372 1.946-.8 0-1.255-.708-1.255-3.94 0-1.887.057-2.707.085-4.071.016-.786.047-1.39.045-1.526-.006-.42-.732-.632-1.07-.71a3.11 3.11 0 0 0-.893-.095c-.309.023-.526.3-.526.507v.476c-.42-.66-1.096-1.12-1.545-1.253-1.21-.359-2.466-.035-3.426 1.292-.626.866-1.132 1.826-1.393 3.95a13.322 13.322 0 0 0-.104 1.727c-.25 1.526-1.352 3.285-2.254 3.285-.527 0-1.03-1.023-1.03-3.204 0-2.905.18-7.041.21-7.44 0 0 1.14-.02 1.36-.022.568-.006 1.083.007 1.84-.031.38-.02.745-1.382.353-1.55-.177-.077-1.432-.144-1.93-.154-.418-.01-1.583-.096-1.583-.096s.105-2.745.13-3.035c.02-.242-.293-.367-.472-.442-.436-.185-.826-.273-1.289-.368-.639-.132-.929-.003-.985.536-.086.819-.13 3.216-.13 3.216-.469 0-2.07-.092-2.54-.092-.435 0-.905 1.874-.303 1.897.693.027 1.901.05 2.702.074 0 0-.036 4.205-.036 5.503l.002.4c-.44 2.297-1.993 3.538-1.993 3.538.333-1.52-.348-2.661-1.575-3.627-.451-.356-1.344-1.03-2.342-1.769 0 0 .578-.57 1.091-1.716.363-.812.379-1.741-.513-1.946-1.473-.339-2.688.743-3.05 1.898-.28.895-.131 1.56.419 2.25.04.05.084.101.128.153-.332.64-.789 1.504-1.176 2.173-1.074 1.858-1.885 3.328-2.498 3.328-.49 0-.484-1.492-.484-2.89 0-1.204.089-3.014.16-4.89.023-.62-.287-.973-.806-1.292-.316-.195-.99-.577-1.38-.577-.585 0-2.27.08-3.863 4.686-.2.581-.595 1.64-.595 1.64l.034-5.54c0-.13-.07-.256-.228-.342-.268-.146-.985-.444-1.622-.444-.304 0-.455.141-.455.423l-.056 8.667c0 .659.017 1.427.082 1.763.065.337.17.61.3.773.13.163.28.287.529.338.23.047 1.494.21 1.56-.273.078-.579.081-1.205.744-3.539 1.033-3.633 2.38-5.406 3.013-6.036.11-.11.237-.117.23.064-.026.796-.122 2.787-.185 4.478-.172 4.526.651 5.365 1.828 5.365.9 0 2.169-.895 3.53-3.159a797.11 797.11 0 0 0 2.262-3.791c.412.382.875.792 1.337 1.231 1.075 1.02 1.427 1.989 1.193 2.908-.179.703-.853 1.427-2.052.723-.35-.206-.5-.364-.851-.596-.189-.124-.477-.161-.65-.03-.45.338-.706.768-.853 1.302-.143.519.377.793.916 1.033.464.207 1.46.394 2.097.415 2.477.083 4.462-1.196 5.844-4.496.247 2.85 1.3 4.462 3.128 4.462 1.223 0 2.449-1.58 2.985-3.135.154.634.381 1.185.676 1.651 1.409 2.233 4.143 1.752 5.516-.144.424-.585.489-.796.489-.796.2 1.79 1.642 2.416 2.467 2.416.925 0 1.88-.437 2.548-1.943.079.163.164.32.258.467 1.409 2.233 4.143 1.752 5.516-.144.064-.089.12-.17.17-.242l.04 1.176-1.264 1.16c-2.117 1.941-3.726 3.415-3.844 5.13-.152 2.188 1.622 3 2.964 3.107 1.425.113 2.646-.674 3.396-1.776.66-.97 1.092-3.058 1.06-5.12-.012-.825-.033-1.874-.05-3a24.042 24.042 0 0 0 2.354-3.233c.841-1.393 1.742-3.263 2.204-4.719 0 0 .783.007 1.619-.048.267-.017.344.037.294.233-.06.237-1.056 4.079-.146 6.638.622 1.753 2.025 2.316 2.856 2.316.974 0 1.905-.735 2.404-1.827.06.122.123.24.192.349 1.41 2.232 4.133 1.749 5.516-.144.312-.427.49-.796.49-.796.296 1.852 1.737 2.425 2.562 2.425.86 0 1.676-.353 2.338-1.919.027.69.07 1.253.14 1.431.041.109.286.245.463.311.787.292 1.589.154 1.886.094.205-.041.366-.206.388-.632.057-1.118.022-2.997.36-4.393.57-2.344 1.1-3.253 1.352-3.703.141-.252.3-.293.306-.026.012.54.039 2.125.26 4.255.161 1.567.377 2.493.543 2.786.475.838 1.06.878 1.538.878.303 0 .938-.084.88-.618-.027-.26.022-1.866.583-4.175.366-1.507.977-2.87 1.197-3.367.081-.184.12-.04.118-.011-.047 1.038-.15 4.434.272 6.291.574 2.516 2.232 2.798 2.81 2.798 1.234 0 2.243-.939 2.583-3.408.082-.595-.04-1.053-.403-1.053" fill="#fff"/></svg>