<svg width="20" height="18" fill="none" xmlns="http://www.w3.org/2000/svg"><path d="M8 12.857 13.19 9 8 5.143v7.714ZM19.56 2.79c.13.604.22 1.414.28 2.443.07 1.028.1 1.916.1 2.687L20 9c0 2.816-.16 4.886-.44 6.21-.25 1.157-.83 1.903-1.73 2.224-.47.167-1.33.283-2.65.36-1.3.09-2.49.129-3.59.129L10 18c-4.19 0-6.8-.206-7.83-.566-.9-.321-1.48-1.067-1.73-2.224-.13-.604-.22-1.414-.28-2.443-.07-1.028-.1-1.916-.1-2.687L0 9c0-2.816.16-4.886.44-6.21C.69 1.633 1.27.887 2.17.566 2.64.399 3.5.283 4.82.206 6.12.116 7.31.077 8.41.077L10 0c4.19 0 6.8.206 7.83.566.9.321 1.48 1.067 1.73 2.224Z" fill="#F8F8F8"/></svg>